<?xml version="1.0" standalone="no"?>
<!DOCTYPE svg PUBLIC "-//W3C//DTD SVG 20010904//EN"
 "http://www.w3.org/TR/2001/REC-SVG-20010904/DTD/svg10.dtd">
<svg version="1.0" xmlns="http://www.w3.org/2000/svg"
 width="506.000000pt" height="492.000000pt" viewBox="0 0 506.000000 492.000000"
 preserveAspectRatio="xMidYMid meet">

<g transform="translate(0.000000,492.000000) scale(0.100000,-0.100000)"
fill="#000000" stroke="none">
<path d="M2522 3493 c-10 -34 -10 -36 3 -19 13 17 21 56 12 56 -2 0 -9 -17
-15 -37z"/>
<path d="M3084 3478 l-19 -21 28 18 c28 18 33 25 19 25 -5 0 -17 -10 -28 -22z"/>
<path d="M2678 3408 c-21 -12 -38 -28 -38 -36 0 -9 15 -5 50 15 49 27 63 43
38 43 -7 0 -30 -10 -50 -22z"/>
<path d="M1920 3226 c0 -5 86 -56 94 -56 19 0 0 19 -39 38 -46 22 -55 25 -55
18z"/>
<path d="M2350 3187 c-25 -9 -40 -23 -54 -50 -16 -34 -17 -42 -4 -75 29 -79
135 -90 179 -18 23 38 24 58 3 97 -12 24 -69 62 -86 58 -2 0 -19 -5 -38 -12z"/>
<path d="M2790 3178 c-19 -6 -29 -13 -22 -15 19 -7 82 6 82 17 0 12 -14 11
-60 -2z"/>
<path d="M2640 2794 c0 -13 48 -59 55 -52 3 2 -9 17 -25 33 -17 16 -30 24 -30
19z"/>
<path d="M2490 2686 c0 -31 5 -56 10 -56 6 0 10 22 10 49 0 28 -4 53 -10 56
-6 4 -10 -15 -10 -49z"/>
<path d="M2240 2705 c-6 -15 -8 -30 -6 -33 3 -3 10 8 16 23 6 15 8 30 6 33 -3
3 -10 -8 -16 -23z"/>
</g>
</svg>
